<svg xmlns="http://www.w3.org/2000/svg" viewBox="0 0 34 34">
  <title>Instagram</title>
  <path fill="#ffffff" d="M17,7.1c-2.7,0-3,0-4.1,0.1c-1.1,0-1.8,0.2-2.4,0.5C9.9,7.9,9.3,8.2,8.7,8.7c-0.6,0.6-0.9,1.1-1.1,1.8c-0.2,0.6-0.4,1.4-0.5,2.4c0,1.1-0.1,1.4-0.1,4.1c0,2.7,0,3,0.1,4.1c0,1.1,0.2,1.8,0.5,2.4c0.3,0.7,0.6,1.2,1.1,1.8c0.6,0.6,1.1,0.9,1.8,1.1c0.6,0.2,1.4,0.4,2.4,0.5c1.1,0,1.4,0.1,4.1,0.1c2.7,0,3,0,4.1-0.1c1.1,0,1.8-0.2,2.4-0.5c0.7-0.3,1.2-0.6,1.8-1.1c0.6-0.6,0.9-1.1,1.1-1.8c0.2-0.6,0.4-1.4,0.5-2.4c0-1.1,0.1-1.4,0.1-4.1c0-2.7,0-3-0.1-4.1c0-1.1-0.2-1.8-0.5-2.4c-0.3-0.7-0.6-1.2-1.1-1.8c-0.6-0.6-1.1-0.9-1.8-1.1c-0.6-0.2-1.4-0.4-2.4-0.5C20,7.1,19.7,7.1,17,7.1zM17,8.9c2.6,0,3,0,4,0.1c1,0,1.5,0.2,1.8,0.3c0.5,0.2,0.8,0.4,1.1,0.7c0.3,0.3,0.6,0.7,0.7,1.1c0.1,0.3,0.3,0.9,0.3,1.8c0,1,0.1,1.4,0.1,4c0,2.6,0,3-0.1,4c0,1-0.2,1.5-0.3,1.8c-0.2,0.5-0.4,0.8-0.7,1.1c-0.3,0.3-0.7,0.6-1.1,0.7C22.5,24.9,22,25,21,25.1c-1,0-1.4,0.1-4,0.1c-2.6,0-3,0-4-0.1c-1,0-1.5-0.2-1.8-0.3c-0.5-0.2-0.8-0.4-1.1-0.7c-0.3-0.3-0.6-0.7-0.7-1.1C9.1,22.5,9,22,8.9,21c0-1-0.1-1.4-0.1-4c0-2.6,0-3,0.1-4c0-1,0.2-1.5,0.3-1.8c0.2-0.5,0.4-0.8,0.7-1.1c0.3-0.3,0.7-0.6,1.1-0.7C11.5,9.1,12,9,13,8.9C14,8.9,14.4,8.9,17,8.9z M17,11.9c-2.8,0-5.1,2.3-5.1,5.1c0,2.8,2.3,5.1,5.1,5.1c2.8,0,5.1-2.3,5.1-5.1C22.1,14.2,19.8,11.9,17,11.9z M17,20.3c-1.8,0-3.3-1.5-3.3-3.3c0-1.8,1.5-3.3,3.3-3.3c1.8,0,3.3,1.5,3.3,3.3C20.3,18.8,18.8,20.3,17,20.3z M23.5,11.7c0,0.7-0.5,1.2-1.2,1.2c-0.7,0-1.2-0.5-1.2-1.2s0.5-1.2,1.2-1.2C23,10.5,23.5,11,23.5,11.7z" />
</svg>
