<svg xmlns="http://www.w3.org/2000/svg" viewBox="0 0 34 34">
  <title>Twitter</title>
  <path fill="#ffffff" d="M24.5,13.3c0,0.2,0,0.3,0,0.5c0,4.9-3.7,10.6-10.6,10.6c-2.1,0-4.1-0.6-5.7-1.7c1.9,0.2,3.9-0.3,5.5-1.5c-1.6,0-3-1.1-3.5-2.6c0.6,0.1,1.1,0.1,1.7-0.1c-1.7-0.3-3-1.8-3-3.7v0c0.5,0.3,1.1,0.4,1.7,0.5c-1-0.7-1.7-1.8-1.7-3.1c0-0.7,0.2-1.3,0.5-1.9c1.8,2.3,4.6,3.7,7.7,3.9C17,13.9,17,13.6,17,13.3c0-2.1,1.7-3.7,3.7-3.7c1.1,0,2,0.5,2.7,1.2c0.9-0.2,2.8-0.4,2.8-0.4C25.7,11.2,25.2,12.8,24.5,13.3z" />
</svg>
