<svg xmlns="http://www.w3.org/2000/svg" viewBox="0 0 1155.8 146.2"><path d="M96.5 3v22.2H61.3v118h-26v-118H0V3h96.5zm45.6 55.9h41.5V3h26v140.2h-26V82.3h-41.5v60.9h-26V3h26v55.9zm178.7-32.5h-59.9v27.4h46.7v23h-46.7v42.7h59.9v23.6h-85.9V3h85.9v23.4zm161.7 77.1c0 7.7-1.5 14.5-4.4 20.2-2.9 5.7-6.8 10.1-11.6 13.1s-9.8 5.2-15 6.6c-5.2 1.4-10.5 2.1-16 2.1-5.1 0-10.1-.7-15-2s-9.8-3.5-14.5-6.4c-4.7-2.9-8.5-7.3-11.4-13-2.9-5.7-4.3-12.5-4.3-20.2v-63c0-7.9 1.5-14.6 4.5-20.2s7-9.8 11.9-12.6c4.9-2.8 9.9-4.8 14.9-6S431.8.3 437.1.3c4.3 0 8.4.4 12.5 1.1 4.1.7 8.1 2.1 12.2 4s7.6 4.4 10.6 7.4 5.4 6.9 7.3 11.8c1.9 4.9 2.8 10.4 2.8 16.7v10.8h-25.4v-7.2c0-6.7-1.9-11.8-5.7-15.5-3.8-3.7-8.4-5.5-13.7-5.5-5.5 0-10.2 1.9-14.3 5.6-4.1 3.7-6.1 8.9-6.1 15.4V100c0 6.7 1.9 11.9 5.8 15.8 3.9 3.9 8.6 5.8 14.2 5.8 5.9 0 10.6-1.9 14.3-5.7 3.7-3.8 5.5-9.1 5.5-15.9v-8.4l25.4.6v11.3zm190.4 39.7h-38.5L598.8 3h27.8l27 114.2L681.5 3h27.8l-36.4 140.2zM812.8 26.4H753v27.4h46.7v23H753v42.7h59.9v23.6H727V3h85.9v23.4zm205 66.1V2.8h27v140.4H1020l-48.5-83.9v83.9h-27V3h24.8l48.5 89.5zm111.2 16.2c0-1.2-.2-2.4-.6-3.7-.4-1.3-.8-2.4-1.3-3.4s-1.3-2.1-2.5-3.4c-1.2-1.3-2.2-2.3-3.1-3.2-.9-.9-2.3-2.1-4.3-3.6s-3.6-2.7-4.7-3.6c-1.1-.9-3-2.3-5.7-4.2-2.7-1.9-4.7-3.4-6.2-4.5-10.9-8.1-17.8-13.7-20.4-16.6-6.4-6.8-9.6-15-9.6-24.6 0-12.4 3.8-21.8 11.3-28.2 7.5-6.4 17.5-9.6 29.9-9.6 14.3 0 25.2 3.3 32.6 9.9 7.5 6.6 11.2 16.4 11.2 29.3v8.2h-27.2v-6.6c0-11.9-5.2-17.8-15.6-17.8-4.5 0-8.2 1.2-10.9 3.7-2.7 2.5-4.1 5.8-4.1 9.9 0 4 1.6 7.7 4.9 11 3.3 3.3 9.9 8.5 19.9 15.6 6.5 4.7 11.2 8.1 14.1 10.4 2.9 2.3 6.1 5.3 9.7 9 3.6 3.7 6.1 7.5 7.4 11.2 1.3 3.7 2 8 2 12.8 0 12-4.1 21.6-12.2 28.7-8.1 7.1-18.8 10.7-32 10.7-15.1 0-26.3-4-33.6-12-7.3-8-11-19.3-11-33.8v-8.2h27v8.6c0 6.9 1.6 12.4 4.8 16.2 3.2 3.9 7.3 5.9 12.4 6.2 4.7.4 8.8-.6 12.4-3.1 3.6-2.4 5.4-6.2 5.4-11.3zM860.8 79.5v-11h20.4c15.4 0 26-2.6 32-7.9 6-5.3 9-13.2 9-23.9 0-10.8-3-19.1-9-24.9-6-5.8-16.6-8.7-31.6-8.7h-46.7v140.2l25.8.2V113l33.4 30.2h33.2l-66.5-63.7zm.6-53.1h21.8c4.8 0 8.4.8 10.7 2.4 2.3 1.6 3.5 4.3 3.5 8.2 0 3.7-1.1 6.4-3.3 7.9-2.2 1.5-5.6 2.3-10.1 2.3h-22.6V26.4zM571.6 3H527l-30.2 140.2h26l5.5-25.4 28 25.4h45.5L571.6 3zm-37.4 87.4L549 22.2h.8l22.5 104.5-38.1-36.3z" fill="#F64A19"/></svg>